<svg width="1280" height="720" viewBox="0 0 1280 720" fill="none" xmlns="http://www.w3.org/2000/svg">
  <rect width="1280" height="720" fill="#0B1020"/>
  <rect x="40" y="40" width="1200" height="640" rx="24" fill="#111827" stroke="#1F2937" stroke-width="2"/>
  <rect x="68" y="68" width="1144" height="52" rx="14" fill="#0F172A"/>
  <text x="94" y="101" fill="#7DD3FC" font-family="Consolas, 'Courier New', monospace" font-size="26" font-weight="700">VPNCTL  Fast lanes. Calm terminal.  theme:gemini</text>

  <rect x="68" y="146" width="240" height="486" rx="18" fill="#0F172A" stroke="#38BDF8" stroke-width="2"/>
  <text x="92" y="183" fill="#E5E7EB" font-family="Consolas, 'Courier New', monospace" font-size="24" font-weight="700">页面 (10)</text>
  <text x="92" y="228" fill="#CBD5E1" font-family="Consolas, 'Courier New', monospace" font-size="22">  总览</text>
  <text x="92" y="266" fill="#CBD5E1" font-family="Consolas, 'Courier New', monospace" font-size="22">  运行状态</text>
  <rect x="84" y="286" width="208" height="36" rx="10" fill="#7DD3FC"/>
  <text x="92" y="311" fill="#0F172A" font-family="Consolas, 'Courier New', monospace" font-size="22" font-weight="700">&gt; 订阅管理</text>
  <text x="92" y="356" fill="#CBD5E1" font-family="Consolas, 'Courier New', monospace" font-size="22">  节点与策略组</text>
  <text x="92" y="394" fill="#CBD5E1" font-family="Consolas, 'Courier New', monospace" font-size="22">  站点测速</text>
  <text x="92" y="432" fill="#CBD5E1" font-family="Consolas, 'Courier New', monospace" font-size="22">  端口与环境</text>
  <text x="92" y="470" fill="#CBD5E1" font-family="Consolas, 'Courier New', monospace" font-size="22">  主题与外观</text>

  <rect x="332" y="146" width="880" height="486" rx="18" fill="#0F172A" stroke="#38BDF8" stroke-width="2"/>
  <text x="360" y="183" fill="#E5E7EB" font-family="Consolas, 'Courier New', monospace" font-size="24" font-weight="700">订阅 (3)</text>
  <text x="590" y="183" fill="#64748B" font-family="Consolas, 'Courier New', monospace" font-size="20">唯一激活订阅模型</text>

  <rect x="350" y="214" width="844" height="58" rx="14" fill="#7DD3FC"/>
  <text x="370" y="250" fill="#0F172A" font-family="Consolas, 'Courier New', monospace" font-size="24" font-weight="700">&gt; Flybit                       active  synced</text>

  <rect x="350" y="286" width="844" height="58" rx="14" fill="#111827"/>
  <text x="370" y="322" fill="#F8FAFC" font-family="Consolas, 'Courier New', monospace" font-size="24">  XSUS                         resting synced</text>

  <rect x="350" y="358" width="844" height="58" rx="14" fill="#111827"/>
  <text x="370" y="394" fill="#F8FAFC" font-family="Consolas, 'Courier New', monospace" font-size="24">  Demo Local                   resting pending</text>

  <rect x="350" y="452" width="844" height="138" rx="16" fill="#111827"/>
  <text x="376" y="492" fill="#E5E7EB" font-family="Consolas, 'Courier New', monospace" font-size="22" font-weight="700">说明</text>
  <text x="376" y="530" fill="#CBD5E1" font-family="Consolas, 'Courier New', monospace" font-size="20">- Enter: 激活当前订阅，其余订阅自动进入 resting</text>
  <text x="376" y="564" fill="#CBD5E1" font-family="Consolas, 'Courier New', monospace" font-size="20">- y: 只同步 active 订阅</text>
  <text x="376" y="598" fill="#CBD5E1" font-family="Consolas, 'Courier New', monospace" font-size="20">- x: 删除订阅前弹出确认框</text>

  <rect x="68" y="648" width="1144" height="14" rx="7" fill="#111827"/>
  <text x="70" y="676" fill="#94A3B8" font-family="Consolas, 'Courier New', monospace" font-size="18">Tab 切换区域  Enter 激活订阅  a 加订阅  y 同步激活订阅  x 删除  q 退出</text>
</svg>
